<?xml version="1.0" encoding="UTF-8"?>
<svg id="Layer_2" data-name="Layer 2" xmlns="http://www.w3.org/2000/svg" viewBox="0 0 389.3 500">
  <defs>
    <style>
      .cls-1 {
        fill: #1c76c3;
      }

      .cls-1, .cls-2, .cls-3, .cls-4, .cls-5, .cls-6, .cls-7, .cls-8 {
        stroke-width: 0px;
      }

      .cls-2 {
        fill: #e22e40;
      }

      .cls-3 {
        fill: #353636;
      }

      .cls-4 {
        fill: #ee972c;
      }

      .cls-5 {
        fill: #0daa60;
      }

      .cls-6 {
        fill: #f5d617;
      }

      .cls-7 {
        fill: #e9028b;
      }

      .cls-8 {
        fill: #1aaeec;
      }
    </style>
  </defs>
  <g id="Layer_1-2" data-name="Layer 1">
    <g>
      <g>
        <path class="cls-2" d="M204.75,34.45c-18.6,19.12-30.07,45.23-30.07,74.01s11.46,54.89,30.07,74.02V34.45Z"/>
        <path class="cls-4" d="M235.13,12.62c-11.4,5.45-21.68,12.87-30.39,21.82v148.03c8.71,8.95,18.99,16.38,30.39,21.82V12.62Z"/>
        <path class="cls-6" d="M265.52,3.4c-10.73,1.55-20.95,4.7-30.39,9.21v191.68c9.44,4.51,19.65,7.66,30.39,9.21v-76.19c-10.32-5.49-17.35-16.35-17.35-28.86s7.03-23.36,17.35-28.85V3.4Z"/>
        <path class="cls-5" d="M280.84,2.3c-5.2,0-10.32.38-15.32,1.1v76.2c4.57-2.43,9.78-3.81,15.32-3.81s10.56,1.34,15.06,3.69V3.37c-4.92-.7-9.95-1.07-15.06-1.07h0ZM265.52,137.31v76.19c5,.72,10.12,1.11,15.32,1.11s10.14-.37,15.06-1.07v-76.1c-4.51,2.35-9.63,3.69-15.06,3.69s-10.75-1.38-15.32-3.81h0Z"/>
        <path class="cls-8" d="M295.91,3.37v76.11c10.45,5.45,17.59,16.38,17.59,28.98s-7.14,23.54-17.59,28.99v76.1c10.73-1.52,20.94-4.65,30.39-9.13V12.5c-9.45-4.48-19.66-7.61-30.39-9.13h0Z"/>
        <path class="cls-1" d="M326.29,12.5v191.91c11.39-5.4,21.66-12.78,30.39-21.68V34.18c-8.72-8.9-19-16.27-30.39-21.68h0Z"/>
        <path class="cls-7" d="M356.68,34.18v148.55c17.63-18,28.91-42.24,30.2-69.1v-10.36c-1.29-26.86-12.57-51.1-30.2-69.09h0Z"/>
        <path class="cls-3" d="M280.84,216.92c-28.97,0-56.21-11.28-76.69-31.76-20.49-20.48-31.77-47.72-31.77-76.7s11.28-56.21,31.77-76.7C224.64,11.28,251.87,0,280.84,0c59.8,0,108.46,48.65,108.46,108.46s-48.66,108.46-108.46,108.46ZM280.84,4.61c-57.27,0-103.87,46.59-103.87,103.85s46.6,103.85,103.87,103.85,103.87-46.59,103.87-103.85S338.12,4.61,280.84,4.61ZM280.84,143.43c-19.28,0-34.97-15.69-34.97-34.98s15.69-34.97,34.97-34.97,34.95,15.69,34.95,34.97-15.68,34.98-34.95,34.98ZM280.84,78.1c-16.75,0-30.38,13.62-30.38,30.36s13.63,30.37,30.38,30.37,30.36-13.62,30.36-30.37-13.62-30.36-30.36-30.36Z"/>
      </g>
      <g>
        <polygon class="cls-3" points="22.93 140.13 0 140.13 0 145.89 22.93 145.89 22.93 215.61 29.16 215.61 29.16 145.89 52.08 145.89 52.08 140.13 29.16 140.13 22.93 140.13"/>
        <polygon class="cls-3" points="67.75 178.53 97.56 178.53 97.56 215.61 103.79 215.61 103.79 140.13 97.56 140.13 97.56 172.87 67.75 172.87 67.75 140.13 61.52 140.13 61.52 215.61 67.75 215.61 67.75 178.53"/>
        <polygon class="cls-3" points="161.35 209.86 126.06 209.86 126.06 178.53 148.7 178.53 148.7 172.87 126.06 172.87 126.06 145.89 161.35 145.89 161.35 140.13 119.83 140.13 119.83 215.61 161.35 215.61 161.35 209.86"/>
        <path class="cls-3" d="M13.51,290.25h25.07l5.39,19.72h6.42l-20.95-75.48h-6.79L1.7,309.97h6.42l5.39-19.72ZM26.04,244.39l10.99,40.2H15.05l10.99-40.2Z"/>
        <polygon class="cls-3" points="66.52 250.34 79.73 285.91 85.58 285.91 98.79 250.34 99.83 309.97 106.05 309.97 104.73 234.49 98.6 234.49 82.65 276.38 66.71 234.49 60.58 234.49 59.25 309.97 65.48 309.97 66.52 250.34"/>
        <path class="cls-3" d="M135.87,234.49l-20.95,75.48h6.42l5.39-19.72h25.07l5.39,19.72h6.42l-20.95-75.48h-6.79ZM128.28,284.59l10.99-40.2,10.99,40.2h-21.98Z"/>
        <polygon class="cls-3" points="219.18 304.21 179.93 304.21 219.37 239.3 219.37 234.49 172.57 234.49 172.57 240.24 211.83 240.24 172.38 305.25 172.38 309.97 219.18 309.97 219.18 304.21"/>
        <polygon class="cls-3" points="255.61 309.97 270.89 309.97 270.89 304.21 255.61 304.21 255.61 240.24 270.89 240.24 270.89 234.49 255.61 234.49 249.38 234.49 234.09 234.49 234.09 240.24 249.38 240.24 249.38 304.21 234.09 304.21 234.09 309.97 249.38 309.97 255.61 309.97"/>
        <polygon class="cls-3" points="294.38 247.84 323.35 309.97 323.82 309.97 330.05 309.97 330.05 234.49 323.82 234.49 323.82 296.61 294.86 234.49 294.38 234.49 288.16 234.49 288.16 309.97 294.38 309.97 294.38 247.84"/>
        <path class="cls-3" d="M365.81,277.23h16.42v17.17c-.94,2.77-2.05,4.97-3.3,6.6-1.26,1.64-2.78,2.8-4.58,3.49-1.79.69-4.07,1.04-6.84,1.04-4.59,0-8.21-1.01-10.85-3.02-2.64-2.01-4.52-5.46-5.61-10.33-1.1-4.87-1.65-11.53-1.65-19.96s.55-15.16,1.65-20c1.1-4.84,2.97-8.27,5.61-10.28,2.64-2.01,6.26-3.02,10.85-3.02,3.08,0,5.61.42,7.6,1.27,1.98.85,3.62,2.28,4.91,4.29,1.29,2.01,2.37,4.81,3.26,8.4l6.04-1.51c-1.26-4.65-2.75-8.29-4.48-10.9-1.73-2.61-3.98-4.48-6.75-5.61-2.77-1.13-6.29-1.7-10.57-1.7-4.59,0-8.46.65-11.61,1.93-3.15,1.29-5.65,3.43-7.5,6.42-1.86,2.99-3.19,7-4.01,12.03-.82,5.03-1.23,11.26-1.23,18.68s.41,13.65,1.23,18.68c.82,5.03,2.15,9.04,4.01,12.03,1.85,2.99,4.36,5.13,7.5,6.42s7.01,1.93,11.61,1.93c4.03,0,7.33-.49,9.91-1.46,2.58-.97,4.73-2.64,6.46-5,1.73-2.36,3.26-5.55,4.58-9.58v-23.68h-22.65v5.66Z"/>
        <path class="cls-3" d="M39.68,369.74c3.05-1.29,5.24-3.49,6.56-6.6,1.32-3.11,1.98-7.41,1.98-12.88s-.66-9.58-1.98-12.69c-1.32-3.11-3.51-5.35-6.56-6.7-3.05-1.35-7.22-2.03-12.5-2.03H6.23v75.48h6.23v-32.65h9.21l21.74,32.65h7.17l-21.58-32.67c4.43-.13,7.99-.77,10.69-1.91ZM12.45,334.6h14.72c3.77,0,6.75.46,8.92,1.37,2.17.91,3.69,2.52,4.58,4.81.88,2.3,1.32,5.46,1.32,9.48s-.44,7.28-1.32,9.58c-.88,2.3-2.41,3.9-4.58,4.81-2.17.91-5.14,1.37-8.92,1.37h-14.72v-31.42Z"/>
        <polygon class="cls-3" points="104.73 334.6 104.73 328.84 63.22 328.84 63.22 404.32 104.73 404.32 104.73 398.57 69.44 398.57 69.44 367.24 92.09 367.24 92.09 361.58 69.44 361.58 69.44 334.6 104.73 334.6"/>
        <path class="cls-3" d="M130.4,336.29c2.52-2.01,5.94-3.02,10.28-3.02,2.83,0,5.13.36,6.89,1.08,1.76.72,3.27,2.01,4.53,3.87,1.26,1.86,2.39,4.45,3.4,7.78l5.94-2.08c-1.26-4.15-2.74-7.41-4.44-9.77-1.7-2.36-3.85-4.06-6.46-5.1-2.61-1.04-5.9-1.56-9.86-1.56-4.47,0-8.19.66-11.18,1.98-2.99,1.32-5.39,3.49-7.22,6.51-1.83,3.02-3.13,7.03-3.92,12.03-.79,5-1.18,11.15-1.18,18.45s.39,13.54,1.18,18.54c.79,5,2.09,9.01,3.92,12.03,1.82,3.02,4.23,5.21,7.22,6.56,2.99,1.35,6.71,2.03,11.18,2.03,4.03,0,7.33-.5,9.91-1.51,2.58-1.01,4.72-2.69,6.42-5.05,1.7-2.36,3.18-5.58,4.44-9.67l-5.94-1.98c-1.01,3.21-2.14,5.73-3.4,7.55-1.26,1.83-2.77,3.1-4.53,3.82-1.76.72-4.06,1.08-6.89,1.08-4.34,0-7.77-1.02-10.28-3.07-2.52-2.04-4.31-5.49-5.38-10.33-1.07-4.84-1.6-11.51-1.6-20s.53-15.14,1.6-19.96c1.07-4.81,2.86-8.22,5.38-10.24Z"/>
        <path class="cls-3" d="M182.34,402.3c3.3,2.23,7.82,3.35,13.54,3.35s10.32-1.12,13.59-3.35c3.27-2.23,5.62-5.91,7.03-11.04,1.41-5.13,2.12-12.09,2.12-20.9v-7.55c0-8.81-.71-15.77-2.12-20.9-1.42-5.13-3.76-8.81-7.03-11.04-3.27-2.23-7.8-3.35-13.59-3.35s-10.24,1.12-13.54,3.35c-3.3,2.23-5.66,5.91-7.08,11.04-1.42,5.13-2.12,12.09-2.12,20.9v7.55c0,8.81.71,15.77,2.12,20.9,1.42,5.13,3.77,8.81,7.08,11.04ZM179.37,362.81c0-7.55.49-13.46,1.46-17.74.97-4.28,2.67-7.31,5.09-9.11,2.42-1.79,5.74-2.69,9.95-2.69s7.52.9,9.91,2.69c2.39,1.79,4.09,4.83,5.1,9.11,1,4.28,1.51,10.19,1.51,17.74v7.55c0,7.49-.5,13.38-1.51,17.69-1.01,4.31-2.71,7.36-5.1,9.15-2.39,1.79-5.69,2.69-9.91,2.69s-7.44-.9-9.86-2.69c-2.42-1.79-4.12-4.84-5.09-9.15-.98-4.31-1.5-10.2-1.56-17.69v-7.55Z"/>
        <path class="cls-3" d="M266.13,369.74c3.05-1.29,5.24-3.49,6.56-6.6s1.98-7.41,1.98-12.88-.66-9.58-1.98-12.69-3.51-5.35-6.56-6.7c-3.05-1.35-7.22-2.03-12.5-2.03h-20.95v75.48h6.23v-32.65h9.21l21.74,32.65h7.17l-21.58-32.67c4.43-.13,7.99-.77,10.69-1.91ZM238.9,334.6h14.72c3.77,0,6.75.46,8.92,1.37,2.17.91,3.69,2.52,4.58,4.81.88,2.3,1.32,5.46,1.32,9.48s-.44,7.28-1.32,9.58c-.88,2.3-2.41,3.9-4.58,4.81-2.17.91-5.14,1.37-8.92,1.37h-14.72v-31.42Z"/>
        <path class="cls-3" d="M327.78,337.1c-1.7-2.92-3.98-5.03-6.84-6.32-2.86-1.29-6.4-1.93-10.61-1.93h-22.27v75.48h22.27c4.21,0,7.75-.64,10.61-1.93,2.86-1.29,5.14-3.4,6.84-6.32,1.7-2.92,2.93-6.81,3.68-11.65.76-4.84,1.13-10.79,1.13-17.83s-.38-13.07-1.13-17.88c-.75-4.81-1.98-8.68-3.68-11.61ZM324.91,385.74c-.98,4.66-2.63,7.96-4.95,9.91-2.33,1.95-5.54,2.92-9.62,2.92h-16.04v-63.97h16.04c4.09,0,7.3.98,9.62,2.92,2.33,1.95,3.98,5.24,4.95,9.86.98,4.62,1.46,11.02,1.46,19.2s-.49,14.5-1.46,19.15Z"/>
        <path class="cls-3" d="M39.16,461.17c-3.15-1.92-7.45-3.73-12.93-5.43-3.71-1.19-6.64-2.39-8.78-3.59-2.14-1.19-3.63-2.61-4.48-4.25-.85-1.63-1.27-3.71-1.27-6.23,0-3.59.42-6.42,1.27-8.49.85-2.07,2.31-3.52,4.39-4.34,2.08-.82,4.97-1.23,8.68-1.23,3.27,0,5.93.25,7.97.76,2.04.5,3.73,1.37,5.05,2.6,1.32,1.23,2.52,2.97,3.59,5.24l4.34-4.72c-1.38-2.45-2.97-4.37-4.76-5.75s-3.96-2.37-6.51-2.97c-2.55-.6-5.77-.9-9.67-.9-5.16,0-9.25.63-12.27,1.89-3.02,1.26-5.16,3.32-6.42,6.18-1.26,2.86-1.89,6.78-1.89,11.75,0,3.46.63,6.37,1.89,8.73,1.26,2.36,3.36,4.42,6.32,6.18,2.96,1.76,6.98,3.49,12.08,5.19,4.09,1.32,7.3,2.69,9.62,4.1,2.33,1.41,3.96,3.07,4.91,4.95s1.42,4.28,1.42,7.17c0,4.09-.47,7.33-1.42,9.72-.94,2.39-2.55,4.07-4.81,5.05-2.26.98-5.41,1.46-9.44,1.46-3.59,0-6.48-.28-8.68-.85-2.2-.57-4.01-1.57-5.43-3.02-1.42-1.45-2.66-3.43-3.73-5.94l-4.72,4.43c1.51,2.83,3.19,5.05,5.05,6.65,1.85,1.6,4.18,2.75,6.98,3.44,2.8.69,6.31,1.04,10.52,1.04,5.53,0,9.89-.69,13.07-2.08,3.18-1.38,5.44-3.68,6.79-6.89,1.35-3.21,2.03-7.55,2.03-13.02,0-4.03-.68-7.36-2.03-10-1.35-2.64-3.6-4.92-6.75-6.84Z"/>
        <polygon class="cls-3" points="79.54 423.2 56.61 423.2 56.61 428.95 79.54 428.95 79.54 498.68 85.77 498.68 85.77 428.95 108.7 428.95 108.7 423.2 85.77 423.2 79.54 423.2"/>
        <path class="cls-3" d="M152.85,425.22c-3.27-2.23-7.8-3.35-13.59-3.35s-10.24,1.12-13.54,3.35c-3.3,2.23-5.66,5.91-7.08,11.04-1.42,5.13-2.12,12.09-2.12,20.9v7.55c0,8.81.71,15.77,2.12,20.9,1.42,5.13,3.77,8.81,7.08,11.04,3.3,2.23,7.82,3.35,13.54,3.35s10.32-1.12,13.59-3.35c3.27-2.23,5.61-5.91,7.03-11.04s2.12-12.09,2.12-20.9v-7.55c0-8.81-.71-15.77-2.12-20.9-1.42-5.13-3.76-8.81-7.03-11.04ZM155.78,464.71c0,7.49-.5,13.38-1.51,17.69-1.01,4.31-2.71,7.36-5.1,9.15-2.39,1.79-5.69,2.69-9.91,2.69s-7.44-.9-9.86-2.69c-2.42-1.79-4.12-4.84-5.09-9.15-.98-4.31-1.5-10.21-1.56-17.69v-7.55c0-7.55.49-13.46,1.46-17.74.97-4.28,2.67-7.31,5.09-9.11,2.42-1.79,5.74-2.69,9.95-2.69s7.52.9,9.91,2.69c2.39,1.79,4.09,4.83,5.1,9.11,1.01,4.28,1.51,10.19,1.51,17.74v7.55Z"/>
        <path class="cls-3" d="M209.51,464.1c3.05-1.29,5.24-3.49,6.56-6.61,1.32-3.11,1.98-7.41,1.98-12.88s-.66-9.58-1.98-12.69c-1.32-3.11-3.51-5.35-6.56-6.7-3.05-1.35-7.22-2.03-12.5-2.03h-20.95v75.48h6.23v-32.65h9.21l21.74,32.65h7.17l-21.58-32.67c4.43-.13,7.99-.77,10.68-1.91ZM182.29,428.95h14.72c3.77,0,6.75.46,8.92,1.37,2.17.91,3.69,2.52,4.58,4.81.88,2.3,1.32,5.46,1.32,9.48s-.44,7.28-1.32,9.58c-.88,2.3-2.41,3.9-4.58,4.81-2.17.91-5.14,1.37-8.92,1.37h-14.72v-31.42Z"/>
        <polygon class="cls-3" points="233.05 498.68 274.57 498.68 274.57 492.92 239.28 492.92 239.28 461.6 261.93 461.6 261.93 455.94 239.28 455.94 239.28 428.95 274.57 428.95 274.57 423.2 233.05 423.2 233.05 498.68"/>
      </g>
    </g>
  </g>
</svg>